<svg width="320" height="347" viewBox="0 0 320 347" fill="none" xmlns="http://www.w3.org/2000/svg">
<path d="M75.2777 252.405L61.352 292.501L96.6107 269.543C120.61 294.765 176.27 333.233 261.365 282.53C346.46 231.828 317.331 107.579 305.462 80.9188C293.593 54.2582 234.788 -20.3003 139.737 6.86173C44.6867 34.0237 33.7968 143.757 42.6855 190.644C44.2658 198.944 50.2114 219.229 61.352 233.974" stroke="#CB3B3B"/>
<path d="M37.8897 285.377L22.8557 329.578L60.9205 304.27C86.8302 332.073 146.919 374.479 238.787 318.586C330.654 262.694 299.207 125.727 286.394 96.3372C273.58 66.9476 210.094 -15.2429 107.479 14.6995C4.86411 44.6418 -6.89248 165.608 2.7037 217.294C4.40969 226.443 10.8285 248.805 22.8557 265.059" stroke="#85203B"/>
</svg>
