<svg width="94" height="43" viewBox="0 0 94 43" fill="none" xmlns="http://www.w3.org/2000/svg">
<path d="M51.7214 15.8014L45.7871 21.7808M39.8529 27.7601L45.7871 21.7808M45.7871 21.7808L40.1065 15.7981L51.1235 27.4009" stroke="#333333"/>
<path d="M85.5151 28.9375V22.0312V13" stroke="black" stroke-width="2"/>
<path d="M74.8483 13.5312H77.5149M77.5149 13.5312H80.6664M77.5149 13.5312V30M62.7271 30H70.9695L66.6058 13.5312L62.7271 30Z" stroke="black" stroke-width="2"/>
<path d="M85.5152 13.5312V22.0312H90.6061M90.6061 22.0312V13.5312V21.2344M90.6061 22.0312V21.2344M90.6061 28.9375V21.2344M94 22.0312H62" stroke="black" stroke-width="2"/>
<path d="M11.7688 5.10322L16.6531 14.9509M11.7688 5.10322V25.3458M11.7688 5.10322L6.88438 14.9509M16.6531 14.9509L11.7688 25.3458M16.6531 14.9509H6.88438M11.7688 25.3458L6.88438 14.9509M10.7221 1H14.211L22.2353 16.0451L14.9087 29.449H9.67546L2 16.0451L10.7221 1Z" stroke="#85203B" stroke-width="2"/>
<path d="M11.8823 14.8061V42H17.1764V28.675M17.1764 28.675V18.8852H24.2353C24.8235 19.4291 26 21.1151 26 23.5081C26 25.9012 24.8235 27.9498 24.2353 28.675H17.1764Z" stroke="#85203B" stroke-width="2"/>
</svg>
