<svg width="220" height="92" viewBox="0 0 220 92" fill="none" xmlns="http://www.w3.org/2000/svg">
<path d="M10.268 27V17.136H6.38V27H0.62V2.232H6.38V11.916H10.268V2.232H16.028V27H10.268ZM19.108 4.968V0.251999H24.508V4.968H19.108ZM19.108 27V8.64H24.508V27H19.108ZM35.6753 18.864C35.3153 15.888 34.9793 12.816 34.6673 9.648C34.3553 6.48 34.1993 4.512 34.1993 3.744V2.232H40.6793V3.744C40.6793 4.536 40.5233 6.552 40.2113 9.792C39.8993 13.032 39.5633 16.056 39.2033 18.864H35.6753ZM34.5593 27V21.852H40.3193V27H34.5593ZM0.656 84V59.232H6.416V84H0.656ZM9.87116 67.152C10.6872 67.152 11.2152 66.972 11.4552 66.612C11.7192 66.252 11.8512 65.568 11.8512 64.56V64.056H9.87116V59.232H15.2712V62.616C15.2712 64.512 15.1512 65.916 14.9112 66.828C14.6712 67.74 14.1792 68.4 13.4352 68.808C12.6912 69.192 11.5032 69.384 9.87116 69.384V67.152ZM34.5638 74.136C34.5638 72.72 34.5398 71.76 34.4918 71.256C34.4438 70.728 34.3358 70.392 34.1678 70.248C34.0238 70.104 33.7238 70.032 33.2678 70.032C32.8118 70.032 32.4998 70.128 32.3318 70.32C32.1638 70.512 32.0558 70.908 32.0078 71.508C31.9598 72.084 31.9358 73.152 31.9358 74.712V84H26.5718V74.136C26.5718 72.72 26.5478 71.76 26.4998 71.256C26.4518 70.728 26.3438 70.392 26.1758 70.248C26.0318 70.104 25.7438 70.032 25.3118 70.032C24.8558 70.032 24.5438 70.128 24.3758 70.32C24.2078 70.512 24.0998 70.896 24.0518 71.472C24.0038 72.048 23.9798 73.128 23.9798 74.712V84H18.6158V65.64H23.7638L23.9078 67.764H24.1958C24.5798 66.876 25.0958 66.252 25.7438 65.892C26.3918 65.532 27.1838 65.352 28.1198 65.352C29.1518 65.352 29.9438 65.556 30.4958 65.964C31.0718 66.348 31.4678 66.948 31.6838 67.764H32.0078C32.3918 66.876 32.9078 66.252 33.5558 65.892C34.2278 65.532 35.0318 65.352 35.9678 65.352C37.0478 65.352 37.8638 65.58 38.4158 66.036C38.9918 66.468 39.3878 67.14 39.6038 68.052C39.8198 68.94 39.9278 70.14 39.9278 71.652V84H34.5638V74.136ZM52.4794 84V64.308H47.9794V59.232H62.7034V64.308H58.2394V84H52.4794ZM72.5604 74.136C72.5604 72.72 72.5364 71.76 72.4884 71.256C72.4404 70.728 72.3324 70.392 72.1644 70.248C71.9964 70.104 71.6724 70.032 71.1924 70.032C70.7124 70.032 70.3764 70.128 70.1844 70.32C70.0164 70.512 69.9084 70.908 69.8604 71.508C69.8124 72.108 69.7884 73.176 69.7884 74.712V84H64.4244V57.252H69.7884V67.728H70.0764C70.7004 66.144 71.9844 65.352 73.9284 65.352C75.0564 65.352 75.9084 65.58 76.4844 66.036C77.0604 66.468 77.4444 67.14 77.6364 68.052C77.8284 68.964 77.9244 70.224 77.9244 71.832V84H72.5604V74.136ZM85.1649 84L79.8729 71.616L85.1649 59.232H89.9169L95.2089 71.616L89.9169 84H85.1649ZM87.5409 80.004L90.7809 71.616L87.5409 63.228L84.3009 71.616L87.5409 80.004ZM103.705 84.288C101.569 84.288 100.021 84.024 99.0612 83.496C98.1252 82.968 97.5132 82.08 97.2252 80.832C96.9612 79.584 96.8292 77.58 96.8292 74.82C96.8292 72.06 96.9612 70.056 97.2252 68.808C97.5132 67.56 98.1252 66.672 99.0612 66.144C100.021 65.616 101.569 65.352 103.705 65.352C105.841 65.352 107.377 65.616 108.313 66.144C109.249 66.672 109.849 67.56 110.113 68.808C110.401 70.056 110.545 72.06 110.545 74.82C110.545 77.58 110.401 79.584 110.113 80.832C109.849 82.08 109.249 82.968 108.313 83.496C107.377 84.024 105.841 84.288 103.705 84.288ZM103.705 79.932C104.233 79.932 104.581 79.848 104.749 79.68C104.941 79.488 105.061 79.068 105.109 78.42C105.181 77.772 105.217 76.572 105.217 74.82C105.217 73.068 105.181 71.868 105.109 71.22C105.061 70.572 104.941 70.164 104.749 69.996C104.581 69.804 104.233 69.708 103.705 69.708C103.177 69.708 102.817 69.804 102.625 69.996C102.433 70.164 102.313 70.572 102.265 71.22C102.217 71.844 102.193 73.044 102.193 74.82C102.193 76.596 102.217 77.808 102.265 78.456C102.313 79.08 102.433 79.488 102.625 79.68C102.817 79.848 103.177 79.932 103.705 79.932ZM129.452 84L127.256 75.648H125.42V84H119.66V59.232H128.372C130.172 59.232 131.54 59.532 132.476 60.132C133.412 60.732 134.036 61.608 134.348 62.76C134.66 63.912 134.816 65.472 134.816 67.44C134.816 69.264 134.66 70.764 134.348 71.94C134.06 73.092 133.46 73.968 132.548 74.568L135.392 84H129.452ZM126.932 70.86C127.628 70.86 128.108 70.8 128.372 70.68C128.636 70.536 128.816 70.248 128.912 69.816C129.008 69.36 129.056 68.58 129.056 67.476C129.056 66.372 129.008 65.604 128.912 65.172C128.84 64.74 128.66 64.464 128.372 64.344C128.108 64.2 127.628 64.128 126.932 64.128H125.42V70.86H126.932ZM143.889 84.288C141.753 84.288 140.205 84.024 139.245 83.496C138.309 82.968 137.697 82.08 137.409 80.832C137.145 79.584 137.013 77.58 137.013 74.82C137.013 72.06 137.145 70.056 137.409 68.808C137.697 67.56 138.309 66.672 139.245 66.144C140.205 65.616 141.753 65.352 143.889 65.352C146.025 65.352 147.561 65.616 148.497 66.144C149.433 66.672 150.033 67.56 150.297 68.808C150.585 70.056 150.729 72.06 150.729 74.82C150.729 77.58 150.585 79.584 150.297 80.832C150.033 82.08 149.433 82.968 148.497 83.496C147.561 84.024 146.025 84.288 143.889 84.288ZM143.889 79.932C144.417 79.932 144.765 79.848 144.933 79.68C145.125 79.488 145.245 79.068 145.293 78.42C145.365 77.772 145.401 76.572 145.401 74.82C145.401 73.068 145.365 71.868 145.293 71.22C145.245 70.572 145.125 70.164 144.933 69.996C144.765 69.804 144.417 69.708 143.889 69.708C143.361 69.708 143.001 69.804 142.809 69.996C142.617 70.164 142.497 70.572 142.449 71.22C142.401 71.844 142.377 73.044 142.377 74.82C142.377 76.596 142.401 77.808 142.449 78.456C142.497 79.08 142.617 79.488 142.809 79.68C143.001 79.848 143.361 79.932 143.889 79.932ZM161.401 81.876H161.077C160.453 83.484 159.157 84.288 157.189 84.288C156.061 84.288 155.197 84.06 154.597 83.604C154.021 83.148 153.637 82.476 153.445 81.588C153.253 80.676 153.157 79.404 153.157 77.772V65.64H158.521V75.504C158.521 76.896 158.545 77.856 158.593 78.384C158.665 78.912 158.785 79.248 158.953 79.392C159.121 79.536 159.433 79.608 159.889 79.608C160.369 79.608 160.693 79.512 160.861 79.32C161.053 79.128 161.173 78.744 161.221 78.168C161.269 77.592 161.293 76.512 161.293 74.928V65.64H166.657V84H161.545L161.401 81.876ZM175.662 91.38C174.75 91.38 173.802 91.344 172.818 91.272C171.834 91.2 171.018 91.104 170.37 90.984V87.024L174.33 87.06C175.41 87.06 176.142 86.976 176.526 86.808C176.934 86.664 177.186 86.352 177.282 85.872C177.402 85.416 177.462 84.552 177.462 83.28V81.66H177.174C176.886 82.428 176.442 82.98 175.842 83.316C175.266 83.652 174.522 83.82 173.61 83.82C172.458 83.82 171.558 83.544 170.91 82.992C170.286 82.416 169.83 81.468 169.542 80.148C169.278 78.828 169.146 76.968 169.146 74.568C169.146 72.12 169.29 70.236 169.578 68.916C169.866 67.596 170.322 66.672 170.946 66.144C171.594 65.616 172.494 65.352 173.646 65.352C174.462 65.352 175.194 65.532 175.842 65.892C176.49 66.252 176.958 66.864 177.246 67.728H177.57L177.714 65.64H182.826V81.912C182.826 84.384 182.694 86.244 182.43 87.492C182.166 88.74 181.518 89.7 180.486 90.372C179.478 91.044 177.87 91.38 175.662 91.38ZM175.986 79.176C176.418 79.176 176.718 79.116 176.886 78.996C177.078 78.876 177.222 78.612 177.318 78.204C177.39 77.916 177.426 77.46 177.426 76.836C177.45 76.188 177.462 75.444 177.462 74.604C177.462 72.804 177.426 71.688 177.354 71.256C177.258 70.752 177.114 70.428 176.922 70.284C176.73 70.116 176.418 70.032 175.986 70.032C175.482 70.032 175.134 70.116 174.942 70.284C174.75 70.428 174.63 70.788 174.582 71.364C174.534 71.916 174.51 72.996 174.51 74.604C174.51 76.188 174.534 77.268 174.582 77.844C174.654 78.42 174.774 78.792 174.942 78.96C175.134 79.104 175.482 79.176 175.986 79.176ZM185.713 61.968V57.252H191.113V61.968H185.713ZM185.713 84V65.64H191.113V84H185.713ZM206.862 76.296H198.942C198.942 77.544 198.99 78.396 199.086 78.852C199.206 79.308 199.458 79.608 199.842 79.752C200.25 79.872 200.982 79.932 202.038 79.932C203.358 79.932 204.822 79.872 206.43 79.752V83.748C205.806 83.916 204.966 84.048 203.91 84.144C202.854 84.24 201.81 84.288 200.778 84.288C198.546 84.288 196.926 83.964 195.918 83.316C194.91 82.668 194.274 81.72 194.01 80.472C193.746 79.224 193.614 77.352 193.614 74.856C193.614 72.384 193.746 70.512 194.01 69.24C194.298 67.968 194.922 67.008 195.882 66.36C196.842 65.688 198.354 65.352 200.418 65.352C202.506 65.352 203.994 65.664 204.882 66.288C205.794 66.888 206.346 67.788 206.538 68.988C206.754 70.188 206.862 72.144 206.862 74.856V76.296ZM200.418 69.6C199.962 69.6 199.638 69.672 199.446 69.816C199.254 69.936 199.122 70.236 199.05 70.716C198.978 71.172 198.942 71.952 198.942 73.056H201.858C201.858 71.928 201.822 71.136 201.75 70.68C201.702 70.224 201.582 69.936 201.39 69.816C201.222 69.672 200.898 69.6 200.418 69.6ZM209.374 65.64H214.522L214.666 68.592H214.954C215.338 67.392 215.854 66.552 216.502 66.072C217.15 65.592 218.026 65.352 219.13 65.352V70.788C218.074 70.788 217.234 70.92 216.61 71.184C215.986 71.448 215.518 71.952 215.206 72.696C214.894 73.416 214.738 74.46 214.738 75.828V84H209.374V65.64Z" fill="#CB3B3B"/>
</svg>
